<svg width="17" height="16" viewBox="0 0 17 16" fill="none" xmlns="http://www.w3.org/2000/svg">
<g clip-path="url(#clip0_2_1104)">
<path fill-rule="evenodd" clip-rule="evenodd" d="M7.69857 3.26022C7.89383 3.06495 8.21041 3.06495 8.40567 3.26022L12.4057 7.26022C12.6009 7.45548 12.6009 7.77206 12.4057 7.96732L8.40567 11.9674C8.21041 12.1626 7.89383 12.1626 7.69857 11.9674C7.5033 11.7721 7.5033 11.4555 7.69857 11.2602L10.845 8.11377H2.05212C1.77598 8.11377 1.55212 7.88991 1.55212 7.61377C1.55212 7.33763 1.77598 7.11377 2.05212 7.11377H10.845L7.69857 3.96732C7.5033 3.77206 7.5033 3.45548 7.69857 3.26022Z" fill="black"/>
</g>
<defs>
<clipPath id="clip0_2_1104">
<rect width="16" height="15" fill="white" transform="translate(0.552124 0.11377)"/>
</clipPath>
</defs>
</svg>
