<svg width="17" height="17" viewBox="0 0 17 17" fill="none" xmlns="http://www.w3.org/2000/svg">
<path d="M8.15546 1.75708H6.82212C3.48879 1.75708 2.15546 3.09041 2.15546 6.42375V10.4237C2.15546 13.7571 3.48879 15.0904 6.82212 15.0904H10.8221C14.1555 15.0904 15.4888 13.7571 15.4888 10.4237V9.09041" stroke="#808080" stroke-linecap="round" stroke-linejoin="round"/>
<path d="M11.5155 2.43709L6.26212 7.69042C6.06212 7.89042 5.86212 8.28375 5.82212 8.57042L5.53546 10.5771C5.42879 11.3038 5.94212 11.8104 6.66879 11.7104L8.67546 11.4238C8.95546 11.3838 9.34879 11.1838 9.55546 10.9838L14.8088 5.73042C15.7155 4.82375 16.1421 3.77042 14.8088 2.43709C13.4755 1.10375 12.4221 1.53042 11.5155 2.43709Z" stroke="#808080" stroke-miterlimit="10" stroke-linecap="round" stroke-linejoin="round"/>
<path d="M10.7621 3.19043C10.9832 3.97541 11.4021 4.69047 11.9788 5.26713C12.5554 5.84378 13.2705 6.2627 14.0555 6.48376" stroke="#808080" stroke-miterlimit="10" stroke-linecap="round" stroke-linejoin="round"/>
</svg>
