<svg width="15" height="15" viewBox="0 0 15 15" fill="none" xmlns="http://www.w3.org/2000/svg">
<path d="M8.4375 13.68C11.4444 13.2275 13.75 10.6331 13.75 7.5C13.75 4.04813 10.9519 1.25 7.5 1.25C4.04812 1.25 1.25 4.04813 1.25 7.5C1.25 10.6331 3.55562 13.2281 6.5625 13.68V9.375H5.625C5.37636 9.375 5.1379 9.27623 4.96209 9.10041C4.78627 8.9246 4.6875 8.68614 4.6875 8.4375C4.6875 8.18886 4.78627 7.9504 4.96209 7.77459C5.1379 7.59877 5.37636 7.5 5.625 7.5H6.5625V6.25C6.5625 5.66984 6.79297 5.11344 7.2032 4.7032C7.61344 4.29297 8.16984 4.0625 8.75 4.0625H9.0625C9.31114 4.0625 9.5496 4.16127 9.72541 4.33709C9.90123 4.5129 10 4.75136 10 5C10 5.24864 9.90123 5.4871 9.72541 5.66291C9.5496 5.83873 9.31114 5.9375 9.0625 5.9375H8.75C8.66712 5.9375 8.58763 5.97042 8.52903 6.02903C8.47042 6.08763 8.4375 6.16712 8.4375 6.25V7.5H9.375C9.62364 7.5 9.8621 7.59877 10.0379 7.77459C10.2137 7.9504 10.3125 8.18886 10.3125 8.4375C10.3125 8.68614 10.2137 8.9246 10.0379 9.10041C9.8621 9.27623 9.62364 9.375 9.375 9.375H8.4375V13.68Z" fill="white"/>
</svg>
