<svg width="16" height="16" viewBox="0 0 16 16" fill="none" xmlns="http://www.w3.org/2000/svg">
<path d="M6.17712 12.8284C3.48962 13.7034 3.48962 11.2659 2.42712 10.9534M9.92712 14.0784V11.8909C9.92712 11.2659 9.98962 11.0159 9.61462 10.6409C11.3646 10.4534 13.0521 9.7659 13.0521 6.8909C13.0514 6.144 12.76 5.42672 12.2396 4.8909C12.4837 4.24213 12.4612 3.52317 12.1771 2.8909C12.1771 2.8909 11.4896 2.7034 9.98962 3.7034C8.71915 3.37252 7.3851 3.37252 6.11462 3.7034C4.61462 2.7034 3.92712 2.8909 3.92712 2.8909C3.64305 3.52317 3.62058 4.24213 3.86462 4.8909C3.34428 5.42672 3.05288 6.144 3.05212 6.8909C3.05212 9.7659 4.73962 10.4534 6.48962 10.6409C6.11462 11.0159 6.11462 11.3909 6.17712 11.8909V14.0784" stroke="white" stroke-width="0.9375" stroke-linecap="round" stroke-linejoin="round"/>
</svg>
