<svg width="12" height="12" viewBox="0 0 12 12" fill="none" xmlns="http://www.w3.org/2000/svg">
<path d="M0.270163 1.24561C0.270163 0.90428 0.39283 0.626946 0.638163 0.413612C0.883496 0.189613 1.17683 0.0776129 1.51816 0.0776129C1.8595 0.0776129 2.1475 0.189613 2.38216 0.413612C2.6275 0.626946 2.75016 0.90428 2.75016 1.24561C2.75016 1.57628 2.6275 1.85361 2.38216 2.07761C2.1475 2.30161 1.8595 2.41361 1.51816 2.41361C1.17683 2.41361 0.883496 2.30161 0.638163 2.07761C0.39283 1.85361 0.270163 1.57628 0.270163 1.24561ZM0.494163 4.09361H2.51016V11.4536H0.494163V4.09361ZM9.46191 6.97361C9.46191 6.48295 9.36591 6.10961 9.17391 5.85361C8.98191 5.59761 8.67258 5.46961 8.24591 5.46961C7.95791 5.46961 7.70191 5.53361 7.47791 5.66161C7.25391 5.77895 7.08325 5.94961 6.96591 6.17361C6.84858 6.39761 6.78991 6.66428 6.78991 6.97361V11.4536H4.70991V4.09361H6.78991V5.21361C7.01391 4.79761 7.30725 4.48295 7.66991 4.26961C8.04325 4.04561 8.49125 3.93361 9.01391 3.93361C9.88858 3.93361 10.5392 4.18428 10.9659 4.68561C11.3926 5.17628 11.6059 5.86428 11.6059 6.74961V11.4536H9.46191V6.97361Z" fill="white"/>
</svg>
