<svg width="57" height="30" viewBox="0 0 57 30" fill="none" xmlns="http://www.w3.org/2000/svg">
<g clip-path="url(#clip0_2_704)">
<g clip-path="url(#clip1_2_704)">
<g clip-path="url(#clip2_2_704)">
<path d="M56.293 2.9012C56.1274 3.26062 55.9865 3.63208 55.7933 3.97524C54.5428 6.18172 52.9396 8.10825 50.9649 9.68921C50.2283 10.2753 49.3869 10.716 48.4857 10.9878C46.8782 11.461 45.6892 10.5206 45.6922 8.84274C45.6934 7.99085 45.9023 7.13415 46.0426 6.28407C46.1558 5.61098 46.3099 4.94272 46.2407 4.11491C45.8891 4.35754 45.5098 4.56825 45.1859 4.84639C43.0366 6.69586 40.8771 8.5357 38.7603 10.4213C35.8133 13.0444 32.9145 15.7235 29.9615 18.3393C28.9796 19.2087 27.9079 19.9799 26.8453 20.7511C26.4179 21.0618 25.9266 21.317 25.4263 21.4808C24.2644 21.8589 23.3324 21.2339 23.2891 20.007C23.265 19.3658 23.3794 18.6873 23.5793 18.0744C24.0735 16.5495 24.6593 15.0564 25.1945 13.5435C26.2228 10.6374 27.2716 7.73739 28.2403 4.80967C28.5702 3.81209 28.6797 2.74346 28.8905 1.70555L28.6472 1.52493C28.2378 1.74649 27.7833 1.91144 27.4293 2.19741C26.1506 3.22931 24.8622 4.25639 23.6551 5.36957C17.834 10.7265 12.5794 16.6145 7.50356 22.6704C6.10261 24.3405 4.73899 26.0424 3.34647 27.7173C2.98043 28.1592 2.57586 28.571 2.16406 28.9738C1.85341 29.2808 1.46931 29.5 1.09062 29.1074C0.752879 28.7601 0.991889 28.4301 1.23451 28.1303C1.674 27.5867 2.12132 27.0497 2.54877 26.4976C7.86057 19.6157 13.6516 13.1618 19.8912 7.11428C21.896 5.17029 24.0368 3.36598 26.1614 1.55383C26.7749 1.03066 27.5142 0.607424 28.2619 0.296771C29.1963 -0.0927494 29.9121 0.316638 30.0933 1.31422C30.2083 1.94636 30.2324 2.64112 30.1066 3.26664C29.7725 4.91743 29.4233 6.57184 28.917 8.17568C28.0127 11.0366 26.9826 13.8589 26.0169 16.7006C25.7285 17.5513 25.4787 18.4116 25.3956 19.4639C25.755 19.2593 26.1446 19.0943 26.4678 18.8426C27.7683 17.8384 29.0867 16.8523 30.3269 15.777C34.7393 11.9559 39.1167 8.09501 43.5219 4.26482C44.2335 3.64472 44.9999 3.08783 45.7578 2.52553C46.3027 2.12216 46.9065 1.82234 47.5862 2.19922C48.2563 2.56887 48.3568 3.25038 48.3298 3.91443C48.2954 4.77294 48.1684 5.63025 48.0745 6.48695C47.9956 7.21663 47.9041 7.9451 47.8144 8.7133C48.4827 8.92823 48.9396 8.63142 49.3388 8.31174C50.2051 7.6218 51.0401 6.89393 51.8746 6.16306C52.9546 5.21605 54.0136 4.24134 55.1021 3.30577C55.3899 3.05893 55.7583 2.90541 56.0901 2.70975L56.2845 2.89879L56.2923 2.9012H56.293Z" fill="#5550FF"/>
</g>
</g>
</g>
<defs>
<clipPath id="clip0_2_704">
<rect width="56" height="29.5" fill="white" transform="translate(0.352173 0.11377)"/>
</clipPath>
<clipPath id="clip1_2_704">
<rect width="56" height="29.5" fill="white" transform="translate(0.352173 0.11377)"/>
</clipPath>
<clipPath id="clip2_2_704">
<rect width="55.9898" height="29.5" fill="white" transform="translate(0.3573 0.11377)"/>
</clipPath>
</defs>
</svg>
